<svg preserveAspectRatio="none" overflow="visible" style="display: block;" width="24" height="24" viewBox="0 0 24 24" fill="none" xmlns="http://www.w3.org/2000/svg">
<g id="basil:book-open-outline">
<path id="Vector" fill-rule="evenodd" clip-rule="evenodd" d="M11.602 18.636C11.7218 18.7092 11.8597 18.7473 12 18.746C12.1403 18.7473 12.2782 18.7092 12.398 18.636L13.533 17.955C14.6311 17.2954 15.8669 16.8989 17.1438 16.7965C18.4206 16.6942 19.7039 16.8887 20.893 17.365C21.783 17.721 22.75 17.065 22.75 16.108V4.45C22.75 3.872 22.398 3.353 21.861 3.138C20.3292 2.52526 18.6765 2.27503 17.0319 2.40687C15.3874 2.53871 13.7956 3.04904 12.381 3.898L12 4.124L11.618 3.895C10.2034 3.04604 8.61161 2.53571 6.96708 2.40387C5.32255 2.27203 3.6698 2.52226 2.138 3.135C1.87512 3.23976 1.64984 3.42121 1.49147 3.65573C1.3331 3.89026 1.24896 4.16701 1.25 4.45V16.11C1.25 17.067 2.217 17.722 3.107 17.366C4.29613 16.8897 5.57936 16.6952 6.85622 16.7975C8.13308 16.8999 9.36893 17.2964 10.467 17.956L11.602 18.636ZM2.75 4.508V15.895C4.13192 15.3764 5.61313 15.1767 7.08306 15.3107C8.55299 15.4447 9.97366 15.909 11.239 16.669L11.25 16.675V5.425L10.847 5.183C9.63912 4.45809 8.2809 4.02024 6.87705 3.90321C5.47321 3.78618 4.06124 3.99309 2.75 4.508ZM12.761 16.668L12.75 16.675V5.425L13.153 5.183C14.3609 4.45809 15.7191 4.02024 17.1229 3.90321C18.5268 3.78618 19.9388 3.99309 21.25 4.508V15.895C19.8681 15.3764 18.3869 15.1767 16.9169 15.3107C15.447 15.4447 14.0263 15.909 12.761 16.669" fill="#CA8A04"/>
<path id="Vector_2" d="M9.275 19.042C8.28095 18.4622 7.15079 18.1567 6 18.1567C4.84921 18.1567 3.71905 18.4622 2.725 19.042L2.622 19.102C2.5369 19.1516 2.46242 19.2176 2.40279 19.296C2.34317 19.3744 2.29958 19.4638 2.27451 19.5591C2.24944 19.6544 2.24338 19.7536 2.25667 19.8512C2.26997 19.9489 2.30236 20.0429 2.352 20.128C2.40164 20.2131 2.46755 20.2876 2.54598 20.3472C2.62441 20.4068 2.71381 20.4504 2.80908 20.4755C2.90435 20.5006 3.00363 20.5066 3.10125 20.4933C3.19886 20.48 3.2929 20.4476 3.378 20.398L3.481 20.338C4.2456 19.8921 5.11487 19.6571 6 19.6571C6.88513 19.6571 7.7544 19.8921 8.519 20.338L9.607 20.972C10.3334 21.3956 11.1591 21.6188 12 21.6188C12.8409 21.6188 13.6666 21.3956 14.393 20.972L15.481 20.338C16.2456 19.8921 17.1149 19.6571 18 19.6571C18.8851 19.6571 19.7544 19.8921 20.519 20.338L20.622 20.398C20.7939 20.4983 20.9985 20.5261 21.1909 20.4755C21.3833 20.4249 21.5477 20.2999 21.648 20.128C21.7483 19.9561 21.7761 19.7515 21.7255 19.5591C21.6749 19.3667 21.5499 19.2023 21.378 19.102L21.275 19.042C20.281 18.4622 19.1508 18.1567 18 18.1567C16.8492 18.1567 15.719 18.4622 14.725 19.042L13.638 19.676C13.1409 19.9661 12.5756 20.119 12 20.119C11.4244 20.119 10.8591 19.9661 10.362 19.676L9.275 19.042Z" fill="#CA8A04"/>
</g>
</svg>
