<svg preserveAspectRatio="none" overflow="visible" style="display: block;" width="20" height="20" viewBox="0 0 20 20" fill="none" xmlns="http://www.w3.org/2000/svg">
<g id="fluent:clipboard-task-list-20-regular">
<path id="Vector" d="M9.354 7.854C9.44789 7.76011 9.50063 7.63278 9.50063 7.5C9.50063 7.36722 9.44789 7.23989 9.354 7.146C9.26011 7.05211 9.13278 6.99937 9 6.99937C8.86722 6.99937 8.73989 7.05211 8.646 7.146L7.234 8.558L6.837 8.196C6.73836 8.11169 6.6108 8.06903 6.48129 8.07703C6.35177 8.08504 6.23044 8.14308 6.14293 8.2389C6.05543 8.33472 6.0086 8.4608 6.01234 8.59051C6.01609 8.72022 6.07011 8.84339 6.163 8.934L6.913 9.619C7.00803 9.70552 7.13272 9.75213 7.2612 9.74915C7.38968 9.74617 7.51208 9.69383 7.603 9.603L9.354 7.854ZM9.354 12.146C9.40056 12.1924 9.43751 12.2476 9.46271 12.3084C9.48792 12.3691 9.50089 12.4342 9.50089 12.5C9.50089 12.5658 9.48792 12.6309 9.46271 12.6916C9.43751 12.7524 9.40056 12.8076 9.354 12.854L7.604 14.604C7.51291 14.695 7.39023 14.7473 7.26151 14.7501C7.13279 14.7529 7.00796 14.7059 6.913 14.619L6.163 13.934C6.07011 13.8434 6.01609 13.7202 6.01234 13.5905C6.0086 13.4608 6.05543 13.3347 6.14293 13.2389C6.23044 13.1431 6.35177 13.085 6.48129 13.077C6.6108 13.069 6.73836 13.1117 6.837 13.196L7.234 13.559L8.646 12.146C8.69245 12.0994 8.74762 12.0625 8.80837 12.0373C8.86911 12.0121 8.93423 11.9991 9 11.9991C9.06577 11.9991 9.13089 12.0121 9.19163 12.0373C9.25238 12.0625 9.30755 12.0994 9.354 12.146ZM11 12.75C10.8674 12.75 10.7402 12.8027 10.6464 12.8964C10.5527 12.9902 10.5 13.1174 10.5 13.25C10.5 13.3826 10.5527 13.5098 10.6464 13.6036C10.7402 13.6973 10.8674 13.75 11 13.75H13.5C13.6326 13.75 13.7598 13.6973 13.8536 13.6036C13.9473 13.5098 14 13.3826 14 13.25C14 13.1174 13.9473 12.9902 13.8536 12.8964C13.7598 12.8027 13.6326 12.75 13.5 12.75H11ZM10.5 8.25C10.5 8.11739 10.5527 7.99021 10.6464 7.89645C10.7402 7.80268 10.8674 7.75 11 7.75H13.5C13.6326 7.75 13.7598 7.80268 13.8536 7.89645C13.9473 7.99021 14 8.11739 14 8.25C14 8.38261 13.9473 8.50979 13.8536 8.60355C13.7598 8.69732 13.6326 8.75 13.5 8.75H11C10.8674 8.75 10.7402 8.69732 10.6464 8.60355C10.5527 8.50979 10.5 8.38261 10.5 8.25ZM8.5 2C8.18967 1.99984 7.88694 2.09593 7.63351 2.27503C7.38008 2.45413 7.18844 2.70742 7.085 3H5.5C5.10218 3 4.72064 3.15804 4.43934 3.43934C4.15804 3.72064 4 4.10218 4 4.5V16.5C4 16.8978 4.15804 17.2794 4.43934 17.5607C4.72064 17.842 5.10218 18 5.5 18H14.5C14.8978 18 15.2794 17.842 15.5607 17.5607C15.842 17.2794 16 16.8978 16 16.5V4.5C16 4.10218 15.842 3.72064 15.5607 3.43934C15.2794 3.15804 14.8978 3 14.5 3H12.915C12.8116 2.70742 12.6199 2.45413 12.3665 2.27503C12.1131 2.09593 11.8103 1.99984 11.5 2H8.5ZM8 3.5C8 3.36739 8.05268 3.24021 8.14645 3.14645C8.24021 3.05268 8.36739 3 8.5 3H11.5C11.6326 3 11.7598 3.05268 11.8536 3.14645C11.9473 3.24021 12 3.36739 12 3.5C12 3.63261 11.9473 3.75979 11.8536 3.85355C11.7598 3.94732 11.6326 4 11.5 4H8.5C8.36739 4 8.24021 3.94732 8.14645 3.85355C8.05268 3.75979 8 3.63261 8 3.5ZM5.5 4H7.085C7.18844 4.29258 7.38008 4.54587 7.63351 4.72497C7.88694 4.90407 8.18967 5.00016 8.5 5H11.5C11.8103 5.00016 12.1131 4.90407 12.3665 4.72497C12.6199 4.54587 12.8116 4.29258 12.915 4H14.5C14.6326 4 14.7598 4.05268 14.8536 4.14645C14.9473 4.24021 15 4.36739 15 4.5V16.5C15 16.6326 14.9473 16.7598 14.8536 16.8536C14.7598 16.9473 14.6326 17 14.5 17H5.5C5.36739 17 5.24021 16.9473 5.14645 16.8536C5.05268 16.7598 5 16.6326 5 16.5V4.5C5 4.36739 5.05268 4.24021 5.14645 4.14645C5.24021 4.05268 5.36739 4 5.5 4Z" fill="#16A34A"/>
</g>
</svg>
