<svg preserveAspectRatio="none" overflow="visible" style="display: block;" width="14" height="14" viewBox="0 0 14 14" fill="none" xmlns="http://www.w3.org/2000/svg">
<g id="streamline-flex:target-remix" clip-path="url(#clip0_0_327)">
<path id="Vector" fill-rule="evenodd" clip-rule="evenodd" d="M2.725 2.723C1.79 3.658 1.25 5.073 1.25 6.999C1.25 8.925 1.79 10.34 2.725 11.275C3.66 12.21 5.075 12.75 7 12.75C8.925 12.75 10.341 12.21 11.276 11.275C12.211 10.34 12.752 8.925 12.752 7C12.752 6.83424 12.8178 6.67527 12.9351 6.55806C13.0523 6.44085 13.2112 6.375 13.377 6.375C13.5428 6.375 13.7017 6.44085 13.8189 6.55806C13.9362 6.67527 14.002 6.83424 14.002 7C14.002 9.155 13.394 10.927 12.162 12.16C10.927 13.392 9.155 14 7 14C4.845 14 3.072 13.393 1.84 12.16C0.608 10.927 0 9.154 0 7C0 4.846 0.608 3.073 1.84 1.84C3.072 0.607 4.847 -0.002 7 -0.002C7.16576 -0.002 7.32473 0.063848 7.44194 0.181058C7.55915 0.298269 7.625 0.45724 7.625 0.623C7.625 0.78876 7.55915 0.947731 7.44194 1.06494C7.32473 1.18215 7.16576 1.248 7 1.248C5.076 1.248 3.66 1.788 2.725 2.723ZM6.59 3.651C6.62677 3.81251 6.59792 3.98201 6.5098 4.12227C6.42167 4.26252 6.28147 4.36205 6.12 4.399C5.508 4.538 5.074 4.826 4.786 5.227C4.492 5.636 4.31 6.217 4.31 6.999C4.31 7.944 4.575 8.595 4.99 9.01C5.404 9.425 6.055 9.69 7 9.69C7.822 9.69 8.42 9.49 8.832 9.17C9.237 8.854 9.522 8.376 9.637 7.693C9.65053 7.61204 9.67987 7.53454 9.72334 7.46492C9.76682 7.3953 9.82359 7.33492 9.8904 7.28724C9.95721 7.23955 10.0328 7.2055 10.1127 7.18701C10.1927 7.16853 10.2755 7.16597 10.3565 7.1795C10.4375 7.19303 10.515 7.22237 10.5846 7.26584C10.6542 7.30932 10.7146 7.36609 10.7623 7.4329C10.8099 7.49971 10.844 7.57526 10.8625 7.65524C10.881 7.73521 10.8835 7.81804 10.87 7.899C10.713 8.837 10.292 9.618 9.599 10.156C8.912 10.69 8.019 10.939 7.001 10.939C5.825 10.939 4.818 10.606 4.106 9.894C3.394 9.182 3.06 8.174 3.06 6.999C3.06 6.028 3.286 5.172 3.77 4.498C4.26 3.818 4.974 3.378 5.842 3.18C5.92204 3.16181 6.00488 3.15956 6.08579 3.17338C6.1667 3.18721 6.2441 3.21683 6.31356 3.26057C6.38302 3.30431 6.44318 3.3613 6.49061 3.42829C6.53804 3.49528 6.57182 3.57096 6.59 3.651ZM9.52 5.364L7.443 7.441C7.38496 7.49904 7.31605 7.54509 7.24021 7.5765C7.16437 7.60791 7.08309 7.62408 7.001 7.62408C6.91891 7.62408 6.83763 7.60791 6.76179 7.5765C6.68595 7.54509 6.61704 7.49904 6.559 7.441C6.50096 7.38296 6.45491 7.31405 6.4235 7.23821C6.39209 7.16237 6.37592 7.08109 6.37592 6.999C6.37592 6.91691 6.39209 6.83563 6.4235 6.75979C6.45491 6.68395 6.50096 6.61504 6.559 6.557L8.635 4.48L8.602 4.37C8.46796 3.93569 8.45485 3.47306 8.56409 3.03186C8.67334 2.59066 8.90079 2.18759 9.222 1.866L10.942 0.146C11.003 0.0849078 11.0787 0.0406447 11.1619 0.0175189C11.2451 -0.00560693 11.3328 -0.00680764 11.4166 0.0140336C11.5004 0.0348749 11.5773 0.0770481 11.6399 0.136449C11.7026 0.195849 11.7488 0.270453 11.774 0.353L12.215 1.785L13.647 2.226C13.7295 2.25125 13.8042 2.29744 13.8636 2.36007C13.923 2.4227 13.9651 2.49965 13.986 2.58342C14.0068 2.66718 14.0056 2.75492 13.9825 2.83809C13.9594 2.92125 13.9151 2.99702 13.854 3.058L12.134 4.778C11.8124 5.09921 11.4093 5.32666 10.9681 5.43591C10.5269 5.54515 10.0643 5.53204 9.63 5.398L9.52 5.364Z" fill="#CD992C"/>
</g>
<defs>
<clipPath id="clip0_0_327">
<rect width="14" height="14" fill="white"/>
</clipPath>
</defs>
</svg>
