<svg width="37" height="37" viewBox="0 0 37 37" fill="none" xmlns="http://www.w3.org/2000/svg">
<path fill-rule="evenodd" clip-rule="evenodd" d="M18.2361 0.0429861C17.2958 0.380175 15.7991 2.11954 15.242 2.93869C11.4002 8.58746 17.4439 14.6175 18.8568 14.1031C20.747 13.4151 26.6539 6.57902 20.0875 0.992971C19.6749 0.64195 18.91 -0.198708 18.236 0.0429861H18.2361Z" fill="#3B883E"/>
<path fill-rule="evenodd" clip-rule="evenodd" d="M23.1004 30.92C23.5804 27.3539 21.014 24.5101 19.2571 23.2105C18.3987 22.5757 17.9314 23.0487 17.2848 23.6163C16.7866 24.0537 16.3191 24.4868 15.8694 25.0722C12.6454 29.269 13.7995 33.7385 17.8565 36.6932C18.7845 37.369 19.0915 36.7779 19.766 36.2714L21.2292 34.8651C22.0917 33.7627 22.8481 32.7953 23.1005 30.92H23.1004Z" fill="#3B883E"/>
<path fill-rule="evenodd" clip-rule="evenodd" d="M23.0313 18.6095C23.0503 19.3461 25.2644 21.1529 25.8287 21.5431C32.3697 26.0667 37.0579 19.3543 36.9996 18.4951C36.9411 17.6332 34.8931 15.9128 34.2726 15.467C28.5493 11.3562 23.0088 17.7331 23.0313 18.6095Z" fill="#3B883E"/>
<path fill-rule="evenodd" clip-rule="evenodd" d="M0.000867462 18.6114C0.0815673 19.2958 2.1678 21.2193 2.68649 21.6422C7.90287 25.8957 14.0285 19.7405 13.9135 18.5163C13.8361 17.6925 11.7864 16.0646 11.1073 15.5952C4.62905 11.117 -0.0734011 17.9811 0.000867462 18.6114V18.6114Z" fill="#3B883E"/>
<path fill-rule="evenodd" clip-rule="evenodd" d="M12.767 30.8529C12.5808 29.0073 12.6882 27.5455 13.2382 25.8992C13.697 24.526 15.107 22.5621 14.9984 22.2193C14.728 21.3662 13.4161 22.8644 11.3335 23.631C9.85222 24.1762 8.36232 24.3628 6.5714 24.3752C4.70691 26.6302 4.74984 30.9206 5.38958 31.5961C5.93223 32.1692 8.48918 32.0971 9.39255 31.9874C10.7023 31.8283 11.8043 31.3475 12.767 30.8529Z" fill="#3B883E"/>
<path fill-rule="evenodd" clip-rule="evenodd" d="M6.43169 12.7516C9.40682 13.1254 10.1966 12.8479 13.0531 14.3696C13.5373 14.6274 14.4513 15.3783 14.9403 15.1855C15.3461 14.8179 14.6579 14.2113 14.1778 13.3692C13.4108 12.0239 12.9436 10.6939 12.7211 9.07854C12.5811 8.0623 12.7589 7.2939 12.7255 6.4501C10.5911 5.0898 6.41463 4.79859 5.40998 5.63558C4.82789 6.12054 5.00539 8.68554 5.15173 9.48255C5.46029 11.1628 5.8141 11.4953 6.43169 12.7516Z" fill="#3B883E"/>
<path fill-rule="evenodd" clip-rule="evenodd" d="M27.7043 31.9774C28.5826 32.0998 31.1724 32.2132 31.6867 31.5916C32.3361 30.8064 32.1226 26.2204 30.4958 24.3972C28.4515 24.2782 27.3989 24.2652 25.6351 23.6356C23.651 22.9275 22.2415 21.4048 21.9924 22.2197C21.8965 22.5337 22.7689 23.7298 22.9673 24.0422C24.0716 25.7802 24.7519 28.7772 24.3223 30.8295C25.3672 31.2633 26.2768 31.7785 27.7044 31.9774H27.7043Z" fill="#3B883E"/>
<path fill-rule="evenodd" clip-rule="evenodd" d="M24.3513 6.53972C24.4358 9.66853 24.1189 11.5741 22.3307 14.2257C22.2864 14.2914 22.0355 14.6439 22.0325 14.6512C21.7946 15.2191 22.2063 15.5202 22.9827 14.988C25.4925 13.2677 27.3693 12.8442 30.5817 12.7949C31.0855 11.6998 31.5661 11.3777 31.8612 9.64759C32.0064 8.79582 32.263 6.12979 31.5979 5.59808C30.7355 4.90868 26.1088 4.97851 24.3514 6.53982L24.3513 6.53972Z" fill="#3B883E"/>
<path fill-rule="evenodd" clip-rule="evenodd" d="M20.7034 18.9692C21.2396 16.1548 16.814 15.1818 16.2559 18.181C15.7058 21.1376 20.1115 22.0755 20.7034 18.9692Z" fill="#3B883E"/>
</svg>
