<svg width="124" height="44" viewBox="0 0 124 44" fill="none" xmlns="http://www.w3.org/2000/svg">
<path fill-rule="evenodd" clip-rule="evenodd" d="M18.2361 3.54445C17.2958 3.88164 15.7991 5.62101 15.242 6.44015C11.4002 12.0889 17.4439 18.1189 18.8568 17.6046C20.747 16.9166 26.6539 10.0805 20.0875 4.49444C19.6749 4.14342 18.91 3.30276 18.236 3.54445H18.2361Z" fill="#3B883E"/>
<path fill-rule="evenodd" clip-rule="evenodd" d="M23.1004 34.4215C23.5804 30.8553 21.014 28.0116 19.2571 26.712C18.3987 26.0771 17.9314 26.5502 17.2848 27.1177C16.7866 27.5551 16.3191 27.9883 15.8694 28.5737C12.6454 32.7705 13.7995 37.24 17.8565 40.1946C18.7845 40.8705 19.0915 40.2793 19.766 39.7728L21.2292 38.3666C22.0917 37.2642 22.8481 36.2968 23.1005 34.4215H23.1004Z" fill="#3B883E"/>
<path fill-rule="evenodd" clip-rule="evenodd" d="M23.0313 22.111C23.0503 22.8475 25.2644 24.6544 25.8287 25.0446C32.3697 29.5681 37.0579 22.8557 36.9996 21.9966C36.9411 21.1347 34.8931 19.4143 34.2726 18.9685C28.5493 14.8577 23.0088 21.2345 23.0313 22.111Z" fill="#3B883E"/>
<path fill-rule="evenodd" clip-rule="evenodd" d="M0.000867462 22.1128C0.0815673 22.7973 2.1678 24.7208 2.68649 25.1437C7.90287 29.3972 14.0285 23.242 13.9135 22.0178C13.8361 21.194 11.7864 19.5661 11.1073 19.0966C4.62905 14.6185 -0.0734011 21.4826 0.000867462 22.1129V22.1128Z" fill="#3B883E"/>
<path fill-rule="evenodd" clip-rule="evenodd" d="M12.767 34.3544C12.5808 32.5088 12.6882 31.047 13.2382 29.4007C13.697 28.0275 15.107 26.0635 14.9984 25.7208C14.728 24.8676 13.4161 26.3658 11.3335 27.1324C9.85222 27.6777 8.36232 27.8643 6.5714 27.8767C4.70691 30.1317 4.74984 34.4221 5.38958 35.0976C5.93223 35.6707 8.48918 35.5986 9.39255 35.4888C10.7023 35.3298 11.8043 34.849 12.767 34.3544Z" fill="#3B883E"/>
<path fill-rule="evenodd" clip-rule="evenodd" d="M6.43169 16.2531C9.40682 16.6268 10.1966 16.3494 13.0531 17.871C13.5373 18.1289 14.4513 18.8797 14.9403 18.687C15.3461 18.3194 14.6579 17.7128 14.1778 16.8707C13.4108 15.5254 12.9436 14.1953 12.7211 12.58C12.5811 11.5638 12.7589 10.7954 12.7255 9.95156C10.5911 8.59126 6.41463 8.30006 5.40998 9.13704C4.82789 9.62201 5.00539 12.187 5.15173 12.984C5.46029 14.6643 5.8141 14.9968 6.43169 16.2531Z" fill="#3B883E"/>
<path fill-rule="evenodd" clip-rule="evenodd" d="M27.7043 35.4788C28.5826 35.6013 31.1724 35.7147 31.6867 35.093C32.3361 34.3079 32.1226 29.7219 30.4958 27.8987C28.4515 27.7796 27.3989 27.7666 25.6351 27.1371C23.651 26.429 22.2415 24.9062 21.9924 25.7212C21.8965 26.0352 22.7689 27.2313 22.9673 27.5436C24.0716 29.2817 24.7519 32.2786 24.3223 34.3309C25.3672 34.7648 26.2768 35.2799 27.7044 35.4788H27.7043Z" fill="#3B883E"/>
<path fill-rule="evenodd" clip-rule="evenodd" d="M24.3513 10.0412C24.4358 13.17 24.1189 15.0756 22.3307 17.7272C22.2864 17.7929 22.0355 18.1454 22.0325 18.1526C21.7946 18.7206 22.2063 19.0216 22.9827 18.4895C25.4925 16.7691 27.3693 16.3457 30.5817 16.2963C31.0855 15.2013 31.5661 14.8791 31.8612 13.1491C32.0064 12.2973 32.263 9.63126 31.5979 9.09955C30.7355 8.41015 26.1088 8.47998 24.3514 10.0413L24.3513 10.0412Z" fill="#3B883E"/>
<path fill-rule="evenodd" clip-rule="evenodd" d="M20.7034 22.4707C21.2396 19.6563 16.814 18.6833 16.2559 21.6825C15.7058 24.6391 20.1115 25.577 20.7034 22.4707Z" fill="#3B883E"/>
<path d="M52.8233 33.32C51.0526 33.32 49.5273 32.9893 48.2473 32.328C46.9673 31.6667 45.9753 30.728 45.2713 29.512C44.5886 28.296 44.2473 26.856 44.2473 25.192C44.2473 23.5707 44.5779 22.152 45.2393 20.936C45.9219 19.72 46.8499 18.7707 48.0233 18.088C49.2179 17.384 50.5726 17.032 52.0873 17.032C53.1966 17.032 54.1886 17.2133 55.0633 17.576C55.9593 17.9387 56.7166 18.4613 57.3353 19.144C57.9753 19.8267 58.4553 20.6587 58.7753 21.64C59.1166 22.6 59.2873 23.688 59.2873 24.904C59.2873 25.288 59.1486 25.5867 58.8713 25.8C58.6153 25.992 58.2419 26.088 57.7513 26.088H47.4793V23.784H56.4713L55.9593 24.264C55.9593 23.2827 55.8099 22.4613 55.5113 21.8C55.2339 21.1387 54.8179 20.6373 54.2633 20.296C53.7299 19.9333 53.0579 19.752 52.2473 19.752C51.3513 19.752 50.5833 19.9653 49.9433 20.392C49.3246 20.7973 48.8446 21.384 48.5033 22.152C48.1833 22.8987 48.0233 23.7947 48.0233 24.84V25.064C48.0233 26.8133 48.4286 28.1253 49.2393 29C50.0713 29.8533 51.2873 30.28 52.8873 30.28C53.4419 30.28 54.0606 30.216 54.7433 30.088C55.4473 29.9387 56.1086 29.6933 56.7273 29.352C57.1753 29.096 57.5699 28.9893 57.9113 29.032C58.2526 29.0533 58.5193 29.1707 58.7113 29.384C58.9246 29.5973 59.0526 29.864 59.0953 30.184C59.1379 30.4827 59.0739 30.792 58.9033 31.112C58.7539 31.432 58.4873 31.7093 58.1033 31.944C57.3566 32.4133 56.4926 32.7653 55.5113 33C54.5513 33.2133 53.6553 33.32 52.8233 33.32ZM64.439 33.256C63.799 33.256 63.3083 33.0853 62.967 32.744C62.6257 32.3813 62.455 31.8693 62.455 31.208V12.2C62.455 11.5387 62.6257 11.0373 62.967 10.696C63.3083 10.3547 63.799 10.184 64.439 10.184C65.079 10.184 65.5697 10.3547 65.911 10.696C66.2737 11.0373 66.455 11.5387 66.455 12.2V24.008H66.519L71.799 18.44C72.2257 18.0133 72.599 17.6827 72.919 17.448C73.239 17.2133 73.6763 17.096 74.231 17.096C74.7857 17.096 75.2017 17.2453 75.479 17.544C75.7777 17.8213 75.927 18.1627 75.927 18.568C75.927 18.9733 75.735 19.3787 75.351 19.784L69.783 25.672V24.008L75.895 30.6C76.279 31.0053 76.4497 31.4213 76.407 31.848C76.3857 32.2533 76.215 32.5947 75.895 32.872C75.575 33.128 75.1697 33.256 74.679 33.256C74.0817 33.256 73.6017 33.1387 73.239 32.904C72.8977 32.6693 72.5137 32.3173 72.087 31.848L66.519 26.024H66.455V31.208C66.455 32.5733 65.783 33.256 64.439 33.256ZM84.9553 33.32C83.1846 33.32 81.8513 32.8187 80.9553 31.816C80.0593 30.792 79.6113 29.2987 79.6113 27.336V12.2C79.6113 11.5387 79.7819 11.0373 80.1233 10.696C80.4646 10.3547 80.9553 10.184 81.5953 10.184C82.2353 10.184 82.7259 10.3547 83.0673 10.696C83.4299 11.0373 83.6113 11.5387 83.6113 12.2V27.144C83.6113 28.1253 83.8139 28.8507 84.2193 29.32C84.6459 29.7893 85.2433 30.024 86.0113 30.024C86.1819 30.024 86.3419 30.024 86.4913 30.024C86.6406 30.0027 86.7899 29.9813 86.9392 29.96C87.2379 29.9173 87.4406 30.0027 87.5473 30.216C87.6539 30.408 87.7073 30.8133 87.7073 31.432C87.7073 31.9653 87.6006 32.3813 87.3873 32.68C87.1739 32.9787 86.8219 33.16 86.3313 33.224C86.1179 33.2453 85.8939 33.2667 85.6593 33.288C85.4246 33.3093 85.1899 33.32 84.9553 33.32ZM94.982 33.32C93.8513 33.32 92.838 33.1067 91.942 32.68C91.0673 32.232 90.374 31.6347 89.862 30.888C89.3713 30.1413 89.126 29.2987 89.126 28.36C89.126 27.208 89.4247 26.3013 90.022 25.64C90.6193 24.9573 91.59 24.4667 92.934 24.168C94.278 23.8693 96.0807 23.72 98.342 23.72H99.942V26.024H98.374C97.0513 26.024 95.9953 26.088 95.206 26.216C94.4167 26.344 93.8513 26.568 93.51 26.888C93.19 27.1867 93.03 27.6133 93.03 28.168C93.03 28.872 93.2753 29.448 93.766 29.896C94.2567 30.344 94.9393 30.568 95.814 30.568C96.518 30.568 97.1367 30.408 97.67 30.088C98.2247 29.7467 98.662 29.288 98.982 28.712C99.302 28.136 99.462 27.4747 99.462 26.728V23.048C99.462 21.9813 99.2273 21.2133 98.758 20.744C98.2887 20.2747 97.4993 20.04 96.39 20.04C95.7713 20.04 95.0993 20.1147 94.374 20.264C93.67 20.4133 92.9233 20.6693 92.134 21.032C91.7287 21.224 91.366 21.2773 91.046 21.192C90.7473 21.1067 90.5127 20.936 90.342 20.68C90.1713 20.4027 90.086 20.104 90.086 19.784C90.086 19.464 90.1713 19.1547 90.342 18.856C90.5127 18.536 90.8007 18.3013 91.206 18.152C92.1873 17.7467 93.126 17.4587 94.022 17.288C94.9393 17.1173 95.7713 17.032 96.518 17.032C98.054 17.032 99.3127 17.2667 100.294 17.736C101.297 18.2053 102.043 18.92 102.534 19.88C103.025 20.8187 103.27 22.0347 103.27 23.528V31.208C103.27 31.8693 103.11 32.3813 102.79 32.744C102.47 33.0853 102.011 33.256 101.414 33.256C100.817 33.256 100.347 33.0853 100.006 32.744C99.686 32.3813 99.526 31.8693 99.526 31.208V29.672H99.782C99.6327 30.4187 99.334 31.0693 98.886 31.624C98.4593 32.1573 97.9153 32.5733 97.254 32.872C96.5927 33.1707 95.8353 33.32 94.982 33.32ZM109.314 33.256C108.674 33.256 108.183 33.0853 107.842 32.744C107.501 32.3813 107.33 31.8693 107.33 31.208V19.112C107.33 18.4507 107.501 17.9493 107.842 17.608C108.183 17.2667 108.663 17.096 109.282 17.096C109.901 17.096 110.381 17.2667 110.722 17.608C111.063 17.9493 111.234 18.4507 111.234 19.112V21.288L110.882 20.488C111.351 19.3573 112.077 18.504 113.058 17.928C114.061 17.3307 115.191 17.032 116.45 17.032C117.709 17.032 118.743 17.2667 119.554 17.736C120.365 18.2053 120.973 18.92 121.378 19.88C121.783 20.8187 121.986 22.0133 121.986 23.464V31.208C121.986 31.8693 121.815 32.3813 121.474 32.744C121.133 33.0853 120.642 33.256 120.002 33.256C119.362 33.256 118.861 33.0853 118.498 32.744C118.157 32.3813 117.986 31.8693 117.986 31.208V23.656C117.986 22.44 117.751 21.5547 117.282 21C116.834 20.4453 116.13 20.168 115.17 20.168C113.997 20.168 113.058 20.5413 112.354 21.288C111.671 22.0133 111.33 22.984 111.33 24.2V31.208C111.33 32.5733 110.658 33.256 109.314 33.256Z" fill="#3B883E"/>
</svg>
